<svg width="24" height="24" viewBox="0 0 24 24" fill="none" xmlns="http://www.w3.org/2000/svg">
<g clip-path="url(#clip0)">
<path d="M16.2426 9.17159L14.8284 7.75737L12 10.5858L9.17157 7.75737L7.75736 9.17159L10.5858 12L7.75736 14.8284L9.17157 16.2427L12 13.4142L14.8284 16.2427L16.2426 14.8284L13.4142 12L16.2426 9.17159ZM19.0711 4.92895C15.1678 1.02572 8.83216 1.02572 4.92893 4.92895C1.0257 8.83218 1.0257 15.1679 4.92893 19.0711C8.83216 22.9743 15.1678 22.9743 19.0711 19.0711C22.9743 15.1679 22.9743 8.83218 19.0711 4.92895ZM6.34315 17.6569C3.22481 14.5385 3.22481 9.4615 6.34315 6.34316C9.46149 3.22482 14.5385 3.22482 17.6569 6.34316C20.7752 9.4615 20.7752 14.5385 17.6569 17.6569C14.5385 20.7752 9.46149 20.7752 6.34315 17.6569Z" fill="white"/>
</g>
<defs>
<clipPath id="clip0">
<rect width="24" height="24" fill="white"/>
</clipPath>
</defs>
</svg>
