<svg width="600" height="600" viewBox="0 0 600 600" fill="none" xmlns="http://www.w3.org/2000/svg">
<path fill-rule="evenodd" clip-rule="evenodd" d="M165.861 441.731L515.893 91.7339C548.569 125.588 572.82 166.656 586.685 211.618C600.55 256.58 603.64 304.173 595.704 350.55C587.769 396.927 569.031 440.786 541.006 478.58C512.981 516.375 476.455 547.043 434.382 568.107V222.562L232.598 424.346L240.472 432.213L423.263 249.436V573.406C373.607 595.797 318.791 604.244 264.698 597.84C210.605 591.437 159.277 570.425 116.221 537.059C73.1656 503.693 40.0079 459.233 20.3068 408.45C0.605754 357.667 -4.89513 302.478 4.39429 248.805C13.6837 195.132 37.4129 145.002 73.0354 103.794C108.658 62.5858 154.829 31.8556 206.594 14.9009C258.359 -2.05383 313.763 -4.59299 366.862 7.5559C419.96 19.7048 468.749 46.0831 507.991 83.8601L299.801 292.036L165.861 158.104V441.731ZM176.994 184.992L291.926 299.924L176.994 414.857V184.992Z" fill="#333333"/>
</svg>
